<svg xmlns="http://www.w3.org/2000/svg" xmlns:xlink="http://www.w3.org/1999/xlink" width="144.153" height="115.53" viewBox="0 0 144.153 115.53">
  <defs>
    <linearGradient id="linear-gradient" x1="0.5" x2="0.5" y2="1" gradientUnits="objectBoundingBox">
      <stop offset="0" stop-color="#ff7c43"/>
      <stop offset="1" stop-color="#fff"/>
    </linearGradient>
  </defs>
  <g id="Component_24_12" data-name="Component 24 – 12" transform="translate(0)">
    <rect id="Rectangle_17388" data-name="Rectangle 17388" width="82" height="6" rx="3" transform="translate(31)" fill="#ff7c43"/>
    <g id="Group_6930" data-name="Group 6930" transform="translate(1731.038 361.406) rotate(180)" opacity="0.58">
      <rect id="Rectangle_17389" data-name="Rectangle 17389" width="81.491" height="110.831" rx="5" transform="translate(1700.161 357.832) rotate(180)" fill="url(#linear-gradient)"/>
      <path id="Subtraction_30" data-name="Subtraction 30" d="M66.407,111.042H5A5,5,0,0,1,.22,104.589l30.7-101.1A4.871,4.871,0,0,1,34.942,0V110.941H67.417A5.08,5.08,0,0,1,66.407,111.042Z" transform="translate(1731.038 357.23) rotate(179)" fill="url(#linear-gradient)"/>
      <path id="Subtraction_31" data-name="Subtraction 31" d="M30.154,109.442H0V0H.021a4.911,4.911,0,0,1,4.785,3.55l30.133,99.441a5,5,0,0,1-4.785,6.45Z" transform="translate(1621.995 357.008) rotate(-177)" fill="url(#linear-gradient)"/>
    </g>
  </g>
</svg>
