<svg xmlns="http://www.w3.org/2000/svg" width="25.858" height="22.98" viewBox="0 0 25.858 22.98">
  <path id="Icon_awesome-edit" data-name="Icon awesome-edit" d="M18.074,3.738l4.049,4.049a.439.439,0,0,1,0,.62l-9.8,9.8-4.166.462a.873.873,0,0,1-.965-.965l.462-4.166,9.8-9.8A.439.439,0,0,1,18.074,3.738ZM25.346,2.71,23.155.519a1.756,1.756,0,0,0-2.478,0L19.088,2.108a.439.439,0,0,0,0,.62l4.049,4.049a.439.439,0,0,0,.62,0l1.589-1.589a1.756,1.756,0,0,0,0-2.478ZM17.239,15.544v4.57H2.873V5.749H13.189a.552.552,0,0,0,.382-.157l1.8-1.8a.539.539,0,0,0-.382-.92H2.155A2.155,2.155,0,0,0,0,5.03v15.8a2.155,2.155,0,0,0,2.155,2.155h15.8a2.155,2.155,0,0,0,2.155-2.155V13.749a.54.54,0,0,0-.92-.382l-1.8,1.8A.552.552,0,0,0,17.239,15.544Z" transform="translate(0 -0.007)" fill="#ecf0f3"/>
</svg>
