<svg xmlns="http://www.w3.org/2000/svg" width="48.934" height="43.488" viewBox="0 0 48.934 43.488">
  <path id="Icon_awesome-edit" data-name="Icon awesome-edit" d="M34.2,7.067l7.663,7.663a.831.831,0,0,1,0,1.172L23.311,34.456l-7.884.875A1.652,1.652,0,0,1,13.6,33.5l.875-7.884L33.03,7.067A.831.831,0,0,1,34.2,7.067ZM47.965,5.121,43.819.976a3.323,3.323,0,0,0-4.689,0L36.123,3.983a.831.831,0,0,0,0,1.172l7.663,7.663a.831.831,0,0,0,1.172,0l3.007-3.007a3.323,3.323,0,0,0,0-4.689ZM32.622,29.41v8.648H5.437V10.873H24.96a1.045,1.045,0,0,0,.722-.3l3.4-3.4a1.019,1.019,0,0,0-.722-1.742H4.078A4.079,4.079,0,0,0,0,9.513v29.9A4.079,4.079,0,0,0,4.078,43.5h29.9a4.079,4.079,0,0,0,4.078-4.078V26.012a1.021,1.021,0,0,0-1.742-.722l-3.4,3.4A1.045,1.045,0,0,0,32.622,29.41Z" transform="translate(0 -0.007)" fill="#ffa600"/>
</svg>
